<svg width="24" height="24" viewBox="0 0 24 24" fill="none" xmlns="http://www.w3.org/2000/svg">
<g clip-path="url(#clip0_8205_17638)">
<path d="M3.58 21.196H17.839L17.158 18.991L18.787 20.389L20.28 21.727L23 24V2.475C22.932 1.137 21.78 0 20.352 0L3.585 0.003C2.158 0.003 1 1.142 1 2.48V18.72C1 20.131 2.156 21.196 3.58 21.196V21.196ZM14.128 5.683L14.095 5.695L14.107 5.683H14.128ZM6.497 6.952C8.33 5.618 10.029 5.682 10.029 5.682L10.166 5.817C7.923 6.352 6.906 7.354 6.906 7.354C6.906 7.354 7.178 7.221 7.653 7.018C10.674 5.83 13.973 5.916 17.027 7.42C17.027 7.42 16.008 6.483 13.903 5.883L14.089 5.7C14.38 5.701 15.92 5.755 17.568 6.96C17.568 6.96 19.412 10.11 19.412 13.98C19.351 13.906 18.268 15.646 15.481 15.706C15.481 15.706 15.009 15.172 14.673 14.706C16.303 14.238 16.913 13.302 16.913 13.302C16.378 13.639 15.89 13.839 15.494 14.039C14.885 14.307 14.275 14.439 13.666 14.574C10.782 15.042 9.163 14.259 7.633 13.638L7.11 13.372C7.11 13.372 7.719 14.308 9.284 14.776C8.873 15.245 8.466 15.778 8.466 15.778C5.68 15.712 4.664 13.972 4.664 13.972C4.664 10.096 6.497 6.952 6.497 6.952V6.952Z" fill="white"/>
<path d="M14.3076 12.7727C15.0186 12.7727 15.5976 12.1727 15.5976 11.4327C15.5976 10.6977 15.0216 10.0977 14.3076 10.0977V10.1007C13.5996 10.1007 13.0196 10.6987 13.0176 11.4387C13.0176 12.1727 13.5966 12.7727 14.3076 12.7727Z" fill="white"/>
<path d="M9.69039 12.7727C10.4014 12.7727 10.9804 12.1727 10.9804 11.4327C10.9804 10.6977 10.4054 10.0977 9.69439 10.0977L9.69039 10.1007C8.97939 10.1007 8.40039 10.6987 8.40039 11.4387C8.40039 12.1727 8.97939 12.7727 9.69039 12.7727Z" fill="white"/>
</g>
<defs>
<clipPath id="clip0_8205_17638">
<rect width="24" height="24" fill="white"/>
</clipPath>
</defs>
</svg>
