<svg width="24" height="24" viewBox="0 0 24 24" fill="none" xmlns="http://www.w3.org/2000/svg">
  <path d="M9.69641 13.2498C9.62441 13.2498 8.04041 13.2498 7.32041 13.2498C6.93641 13.2498 6.81641 13.1058 6.81641 12.7458C6.81641 11.7858 6.81641 10.8018 6.81641 9.84178C6.81641 9.45778 6.96041 9.33778 7.32041 9.33778H9.69641C9.69641 9.26578 9.69641 7.87378 9.69641 7.22578C9.69641 6.26578 9.86441 5.35378 10.3444 4.51378C10.8484 3.64978 11.5684 3.07378 12.4804 2.73778C13.0804 2.52178 13.6804 2.42578 14.3284 2.42578H16.6804C17.0164 2.42578 17.1604 2.56978 17.1604 2.90578V5.64178C17.1604 5.97778 17.0164 6.12178 16.6804 6.12178C16.0324 6.12178 15.3844 6.12178 14.7364 6.14578C14.0884 6.14578 13.7524 6.45778 13.7524 7.12978C13.7284 7.84978 13.7524 8.54578 13.7524 9.28978H16.5364C16.9204 9.28978 17.0644 9.43378 17.0644 9.81778V12.7218C17.0644 13.1058 16.9444 13.2258 16.5364 13.2258C15.6724 13.2258 13.8244 13.2258 13.7524 13.2258V21.0498C13.7524 21.4578 13.6324 21.6018 13.2004 21.6018C12.1924 21.6018 11.2084 21.6018 10.2004 21.6018C9.84041 21.6018 9.69641 21.4578 9.69641 21.0978C9.69641 18.5778 9.69641 13.3218 9.69641 13.2498Z" fill="white" />
</svg>
  