<svg width="24" height="24" viewBox="0 0 24 24" fill="none" xmlns="http://www.w3.org/2000/svg">
  <path d="M13.5373 11.9987C13.5373 15.7626 10.5069 18.8138 6.76866 18.8138C3.03042 18.8138 0 15.7626 0 11.9987C0 8.23483 3.03042 5.18359 6.76866 5.18359C10.5068 5.18359 13.5373 8.23483 13.5373 11.9987Z" fill="white" />
  <path d="M20.962 11.9973C20.962 15.5403 19.4468 18.4125 17.5777 18.4125C15.7086 18.4125 14.1934 15.5403 14.1934 11.9973C14.1934 8.4542 15.7086 5.58203 17.5777 5.58203C19.4468 5.58203 20.962 8.4542 20.962 11.9973Z" fill="white" />
  <path d="M23.9997 11.9978C23.9997 15.1722 23.4668 17.7455 22.8094 17.7455C22.152 17.7455 21.6191 15.1722 21.6191 11.9978C21.6191 8.82334 22.152 6.25 22.8094 6.25C23.4668 6.25 23.9997 8.82334 23.9997 11.9978Z" fill="white" />
</svg>
  