<svg width="32" height="22" viewBox="0 0 32 22" fill="none" xmlns="http://www.w3.org/2000/svg">
  <path d="M29.6034 0.515687H2.39656C1.07294 0.515687 0 1.58862 0 2.91225V19.0847C0 20.4082 1.07294 21.4813 2.39656 21.4813H29.6034C30.927 21.4813 32 20.4083 32 19.0847V2.91225C32 1.58862 30.9271 0.515687 29.6034 0.515687Z" fill="#F5F5F5" />
  <path d="M0.131812 2.12844H31.8681C31.5434 1.18988 30.6524 0.515687 29.6034 0.515687H2.39656C1.34756 0.515687 0.456625 1.18988 0.131812 2.12844Z" fill="#FF4B55" />
  <path d="M32 6.96656H0V8.57925H32V6.96656Z" fill="#FF4B55" />
  <path d="M32 3.74094H0V5.35362H32V3.74094Z" fill="#FF4B55" />
  <path d="M0 11.2531C0 11.5578 0.247063 11.8048 0.55175 11.8048H32V10.1921H0V11.2531Z" fill="#FF4B55" />
  <path d="M32 16.6434H0V18.2562H32V16.6434Z" fill="#FF4B55" />
  <path d="M31.8682 19.8684H0.131812C0.456625 20.807 1.34763 21.4813 2.39656 21.4813H29.6034C30.6524 21.4813 31.5434 20.807 31.8682 19.8684Z" fill="#FF4B55" />
  <path d="M32 13.4178H0V15.0305H32V13.4178Z" fill="#FF4B55" />
  <path d="M0.55175 11.8048H14.3449C14.6496 11.8048 14.8966 11.5578 14.8966 11.2531V1.06737C14.8966 0.762625 14.6496 0.515625 14.3449 0.515625L2.39656 0.515687C1.07294 0.515687 0 1.58862 0 2.91225V11.2531C0 11.5578 0.247063 11.8048 0.55175 11.8048Z" fill="#41479B" />
  <path d="M1.54931 1.78212L1.67144 2.14837L2.0575 2.15131C2.1075 2.15175 2.12819 2.2155 2.088 2.24518L1.77744 2.4745L1.89394 2.84256C1.90906 2.89018 1.85475 2.92968 1.81406 2.90056L1.5 2.67612L1.18594 2.90062C1.14525 2.92975 1.09106 2.89025 1.10606 2.84262L1.22256 2.47456L0.912 2.24525C0.871813 2.2155 0.8925 2.15175 0.9425 2.15137L1.32856 2.14843L1.45069 1.78218C1.46644 1.73468 1.53344 1.73468 1.54931 1.78212Z" fill="#F5F5F5" />
  <path d="M1.54931 3.69787L1.67144 4.06412L2.0575 4.06706C2.1075 4.0675 2.12819 4.13119 2.088 4.16094L1.77744 4.39031L1.89394 4.75837C1.90906 4.806 1.85475 4.8455 1.81406 4.81637L1.5 4.59194L1.18594 4.81644C1.14525 4.8455 1.09106 4.80606 1.10606 4.75844L1.22256 4.39037L0.912 4.161C0.871813 4.13125 0.8925 4.06756 0.9425 4.06712L1.32856 4.06419L1.45069 3.69794C1.46644 3.6505 1.53344 3.6505 1.54931 3.69787Z" fill="#F5F5F5" />
  <path d="M1.54931 5.61381L1.67144 5.98006L2.0575 5.983C2.1075 5.98344 2.12819 6.04713 2.088 6.07688L1.77744 6.30625L1.89394 6.67431C1.90906 6.72194 1.85475 6.76144 1.81406 6.73231L1.5 6.50787L1.18594 6.73237C1.14525 6.76144 1.09106 6.72206 1.10606 6.67438L1.22256 6.30631L0.912 6.07694C0.871813 6.04719 0.8925 5.9835 0.9425 5.98306L1.32856 5.98012L1.45069 5.61387C1.46644 5.56637 1.53344 5.56637 1.54931 5.61381Z" fill="#F5F5F5" />
  <path d="M1.54931 7.52969L1.67144 7.89594L2.0575 7.89887C2.1075 7.89931 2.12819 7.96306 2.088 7.99275L1.77744 8.22212L1.89394 8.59019C1.90906 8.63781 1.85475 8.67731 1.81406 8.64819L1.5 8.42375L1.18594 8.64825C1.14525 8.67731 1.09106 8.63787 1.10606 8.59025L1.22256 8.22219L0.912 7.99281C0.871813 7.96319 0.8925 7.89938 0.9425 7.89894L1.32856 7.896L1.45069 7.52975C1.46644 7.48225 1.53344 7.48225 1.54931 7.52969Z" fill="#F5F5F5" />
  <path d="M1.54931 9.44556L1.67144 9.81181L2.0575 9.81475C2.1075 9.81519 2.12819 9.87888 2.088 9.90863L1.77744 10.138L1.89394 10.5061C1.90906 10.5537 1.85475 10.5932 1.81406 10.5641L1.5 10.3396L1.18594 10.5641C1.14525 10.5932 1.09106 10.5538 1.10606 10.5061L1.22256 10.1381L0.912 9.90869C0.871813 9.87894 0.8925 9.81525 0.9425 9.81481L1.32856 9.81188L1.45069 9.44563C1.46644 9.39819 1.53344 9.39819 1.54931 9.44556Z" fill="#F5F5F5" />
  <path d="M3.03638 2.72131L3.1585 3.08756L3.54456 3.0905C3.59456 3.09094 3.61525 3.15469 3.57506 3.18438L3.2645 3.41375L3.381 3.78181C3.39612 3.82944 3.34181 3.86894 3.30113 3.83981L2.98706 3.61531L2.673 3.83981C2.63231 3.86888 2.57812 3.82944 2.59312 3.78181L2.70962 3.41375L2.39906 3.18438C2.35887 3.15463 2.37956 3.09094 2.42956 3.0905L2.81562 3.08756L2.93775 2.72131C2.9535 2.67394 3.02056 2.67394 3.03638 2.72131Z" fill="#F5F5F5" />
  <path d="M3.03638 4.63725L3.1585 5.0035L3.54456 5.00644C3.59456 5.00688 3.61525 5.07063 3.57506 5.10031L3.2645 5.32969L3.381 5.69775C3.39612 5.74538 3.34181 5.78488 3.30113 5.75575L2.98706 5.53125L2.673 5.75575C2.63231 5.78481 2.57812 5.74544 2.59312 5.69775L2.70962 5.32969L2.39906 5.10031C2.35887 5.07069 2.37956 5.00688 2.42956 5.00644L2.81562 5.0035L2.93775 4.63725C2.9535 4.58981 3.02056 4.58981 3.03638 4.63725Z" fill="#F5F5F5" />
  <path d="M3.03638 6.55313L3.1585 6.91938L3.54456 6.92231C3.59456 6.92275 3.61525 6.98644 3.57506 7.01619L3.2645 7.24556L3.381 7.61363C3.39612 7.66125 3.34181 7.70075 3.30113 7.67163L2.98706 7.44713L2.673 7.67163C2.63231 7.70069 2.57812 7.66125 2.59312 7.61363L2.70962 7.24556L2.39906 7.01619C2.35887 6.98644 2.37956 6.92275 2.42956 6.92231L2.81562 6.91938L2.93775 6.55313C2.9535 6.50569 3.02056 6.50569 3.03638 6.55313Z" fill="#F5F5F5" />
  <path d="M3.03638 8.469L3.1585 8.83525L3.54456 8.83819C3.59456 8.83863 3.61525 8.90231 3.57506 8.93206L3.2645 9.16144L3.381 9.5295C3.39612 9.57712 3.34181 9.61663 3.30113 9.5875L2.98706 9.363L2.673 9.5875C2.63231 9.61663 2.57812 9.57712 2.59312 9.5295L2.70962 9.16144L2.39906 8.93206C2.35887 8.90231 2.37956 8.83863 2.42956 8.83819L2.81562 8.83525L2.93775 8.469C2.9535 8.42163 3.02056 8.42163 3.03638 8.469Z" fill="#F5F5F5" />
  <path d="M4.52344 1.782L4.64556 2.14825L5.03162 2.15119C5.08162 2.15162 5.10231 2.21537 5.06213 2.24506L4.75156 2.47437L4.86806 2.84244C4.88319 2.89006 4.82888 2.92956 4.78819 2.90044L4.47412 2.67594L4.16006 2.90044C4.11937 2.92956 4.06519 2.89006 4.08019 2.84244L4.19669 2.47437L3.88613 2.24506C3.84594 2.21531 3.86663 2.15156 3.91663 2.15119L4.30269 2.14825L4.42481 1.782C4.44056 1.73456 4.50763 1.73456 4.52344 1.782Z" fill="#F5F5F5" />
  <path d="M4.52344 3.69787L4.64556 4.06412L5.03162 4.06706C5.08162 4.0675 5.10231 4.13119 5.06213 4.16094L4.75156 4.39031L4.86806 4.75838C4.88319 4.806 4.82888 4.8455 4.78819 4.81638L4.47412 4.59187L4.16006 4.81638C4.11937 4.84544 4.06519 4.806 4.08019 4.75838L4.19669 4.39031L3.88613 4.16094C3.84594 4.13119 3.86663 4.0675 3.91663 4.06706L4.30269 4.06412L4.42481 3.69787C4.44056 3.6505 4.50763 3.6505 4.52344 3.69787Z" fill="#F5F5F5" />
  <path d="M4.52344 5.61381L4.64556 5.98006L5.03162 5.983C5.08162 5.98344 5.10231 6.04713 5.06213 6.07688L4.75156 6.30625L4.86806 6.67431C4.88319 6.72194 4.82888 6.76144 4.78819 6.73231L4.47412 6.50781L4.16006 6.73231C4.11937 6.76138 4.06519 6.722 4.08019 6.67431L4.19669 6.30625L3.88613 6.07688C3.84594 6.04713 3.86663 5.98344 3.91663 5.983L4.30269 5.98006L4.42481 5.61381C4.44056 5.56637 4.50763 5.56637 4.52344 5.61381Z" fill="#F5F5F5" />
  <path d="M4.52344 7.52969L4.64556 7.89594L5.03162 7.89888C5.08162 7.89931 5.10231 7.96306 5.06213 7.99275L4.75156 8.22213L4.86806 8.59019C4.88319 8.63781 4.82888 8.67731 4.78819 8.64819L4.47412 8.42369L4.16006 8.64819C4.11937 8.67725 4.06519 8.63781 4.08019 8.59019L4.19669 8.22213L3.88613 7.99275C3.84594 7.96313 3.86663 7.89931 3.91663 7.89888L4.30269 7.89594L4.42481 7.52969C4.44056 7.48225 4.50763 7.48225 4.52344 7.52969Z" fill="#F5F5F5" />
  <path d="M4.52344 9.44556L4.64556 9.81181L5.03162 9.81475C5.08162 9.81519 5.10231 9.87888 5.06213 9.90863L4.75156 10.138L4.86806 10.5061C4.88319 10.5537 4.82888 10.5932 4.78819 10.5641L4.47412 10.3396L4.16006 10.5641C4.11937 10.5931 4.06519 10.5537 4.08019 10.5061L4.19669 10.138L3.88613 9.90863C3.84594 9.87888 3.86663 9.81519 3.91663 9.81475L4.30269 9.81181L4.42481 9.44556C4.44056 9.39819 4.50763 9.39819 4.52344 9.44556Z" fill="#F5F5F5" />
  <path d="M6.01056 2.72131L6.13269 3.08756L6.51875 3.0905C6.56875 3.09094 6.58944 3.15469 6.54925 3.18438L6.23869 3.41375L6.35519 3.78181C6.37031 3.82944 6.316 3.86894 6.27531 3.83981L5.96125 3.61531L5.64719 3.83981C5.6065 3.86888 5.55231 3.82944 5.56731 3.78181L5.68381 3.41375L5.37325 3.18438C5.33306 3.15463 5.35375 3.09094 5.40375 3.0905L5.78981 3.08756L5.91194 2.72131C5.92763 2.67394 5.99475 2.67394 6.01056 2.72131Z" fill="#F5F5F5" />
  <path d="M6.01056 4.63725L6.13269 5.0035L6.51875 5.00644C6.56875 5.00688 6.58944 5.07063 6.54925 5.10031L6.23869 5.32969L6.35519 5.69775C6.37031 5.74538 6.316 5.78488 6.27531 5.75575L5.96125 5.53125L5.64719 5.75575C5.6065 5.78481 5.55231 5.74544 5.56731 5.69775L5.68381 5.32969L5.37325 5.10031C5.33306 5.07069 5.35375 5.00688 5.40375 5.00644L5.78981 5.0035L5.91194 4.63725C5.92763 4.58981 5.99475 4.58981 6.01056 4.63725Z" fill="#F5F5F5" />
  <path d="M6.01056 6.55313L6.13269 6.91938L6.51875 6.92231C6.56875 6.92275 6.58944 6.98644 6.54925 7.01619L6.23869 7.24556L6.35519 7.61363C6.37031 7.66125 6.316 7.70075 6.27531 7.67163L5.96125 7.44713L5.64719 7.67163C5.6065 7.70069 5.55231 7.66125 5.56731 7.61363L5.68381 7.24556L5.37325 7.01619C5.33306 6.98644 5.35375 6.92275 5.40375 6.92231L5.78981 6.91938L5.91194 6.55313C5.92763 6.50569 5.99475 6.50569 6.01056 6.55313Z" fill="#F5F5F5" />
  <path d="M6.01056 8.469L6.13269 8.83525L6.51875 8.83819C6.56875 8.83863 6.58944 8.90231 6.54925 8.93206L6.23869 9.16144L6.35519 9.5295C6.37031 9.57712 6.316 9.61663 6.27531 9.5875L5.96125 9.363L5.64719 9.5875C5.6065 9.61663 5.55231 9.57712 5.56731 9.5295L5.68381 9.16144L5.37325 8.93206C5.33306 8.90231 5.35375 8.83863 5.40375 8.83819L5.78981 8.83525L5.91194 8.469C5.92763 8.42163 5.99475 8.42163 6.01056 8.469Z" fill="#F5F5F5" />
  <path d="M7.49763 1.782L7.61975 2.14825L8.00581 2.15119C8.05581 2.15163 8.0765 2.21538 8.03631 2.24506L7.72575 2.47438L7.84225 2.84244C7.85738 2.89006 7.80306 2.92956 7.76238 2.90044L7.44825 2.676L7.13419 2.9005C7.0935 2.92963 7.03931 2.89013 7.05431 2.8425L7.17081 2.47444L6.86025 2.24513C6.82006 2.21538 6.84075 2.15163 6.89075 2.15125L7.27681 2.14831L7.39894 1.78206C7.41475 1.73456 7.48181 1.73456 7.49763 1.782Z" fill="#F5F5F5" />
  <path d="M7.49763 3.69787L7.61975 4.06412L8.00581 4.06706C8.05581 4.0675 8.0765 4.13119 8.03631 4.16094L7.72575 4.39031L7.84225 4.75838C7.85738 4.806 7.80306 4.8455 7.76238 4.81638L7.44825 4.59187L7.13419 4.81638C7.0935 4.84544 7.03931 4.806 7.05431 4.75838L7.17081 4.39031L6.86025 4.16094C6.82006 4.13119 6.84075 4.0675 6.89075 4.06706L7.27681 4.06412L7.39894 3.69787C7.41475 3.6505 7.48181 3.6505 7.49763 3.69787Z" fill="#F5F5F5" />
  <path d="M7.49763 5.61381L7.61975 5.98006L8.00581 5.983C8.05581 5.98344 8.0765 6.04713 8.03631 6.07688L7.72575 6.30625L7.84225 6.67431C7.85738 6.72194 7.80306 6.76144 7.76238 6.73231L7.44825 6.50775L7.13419 6.73225C7.0935 6.76131 7.03931 6.72188 7.05431 6.67425L7.17081 6.30619L6.86025 6.07681C6.82006 6.04706 6.84075 5.98338 6.89075 5.98294L7.27681 5.98L7.39894 5.61375C7.41475 5.56638 7.48181 5.56637 7.49763 5.61381Z" fill="#F5F5F5" />
  <path d="M7.49763 7.52969L7.61975 7.89594L8.00581 7.89888C8.05581 7.89931 8.0765 7.96306 8.03631 7.99275L7.72575 8.22213L7.84225 8.59019C7.85738 8.63781 7.80306 8.67731 7.76238 8.64819L7.44825 8.42369L7.13419 8.64819C7.0935 8.67725 7.03931 8.63781 7.05431 8.59019L7.17081 8.22213L6.86025 7.99275C6.82006 7.96313 6.84075 7.89931 6.89075 7.89888L7.27681 7.89594L7.39894 7.52969C7.41475 7.48225 7.48181 7.48225 7.49763 7.52969Z" fill="#F5F5F5" />
  <path d="M7.49763 9.44556L7.61975 9.81181L8.00581 9.81475C8.05581 9.81519 8.0765 9.87888 8.03631 9.90863L7.72575 10.138L7.84225 10.5061C7.85738 10.5537 7.80306 10.5932 7.76238 10.5641L7.44825 10.3396L7.13419 10.5641C7.0935 10.5931 7.03931 10.5537 7.05431 10.5061L7.17081 10.138L6.86025 9.90863C6.82006 9.87888 6.84075 9.81519 6.89075 9.81475L7.27681 9.81181L7.39894 9.44556C7.41475 9.39819 7.48181 9.39819 7.49763 9.44556Z" fill="#F5F5F5" />
  <path d="M8.98469 2.72131L9.10681 3.08756L9.49288 3.0905C9.54288 3.09094 9.56356 3.15469 9.52337 3.18438L9.21281 3.41375L9.32931 3.78181C9.34444 3.82944 9.29012 3.86894 9.24944 3.83981L8.93538 3.61531L8.62131 3.83981C8.58062 3.86888 8.52644 3.82944 8.54144 3.78181L8.65794 3.41375L8.34737 3.18438C8.30719 3.15463 8.32788 3.09094 8.37788 3.0905L8.76394 3.08756L8.88606 2.72131C8.90188 2.67394 8.96887 2.67394 8.98469 2.72131Z" fill="#F5F5F5" />
  <path d="M8.98469 4.63725L9.10681 5.0035L9.49288 5.00644C9.54288 5.00688 9.56356 5.07063 9.52337 5.10031L9.21281 5.32969L9.32931 5.69775C9.34444 5.74538 9.29012 5.78488 9.24944 5.75575L8.93538 5.53125L8.62131 5.75575C8.58062 5.78481 8.52644 5.74544 8.54144 5.69775L8.65794 5.32969L8.34737 5.10031C8.30719 5.07069 8.32788 5.00688 8.37788 5.00644L8.76394 5.0035L8.88606 4.63725C8.90188 4.58981 8.96887 4.58981 8.98469 4.63725Z" fill="#F5F5F5" />
  <path d="M8.98469 6.55313L9.10681 6.91938L9.49288 6.92231C9.54288 6.92275 9.56356 6.98644 9.52337 7.01619L9.21281 7.24556L9.32931 7.61363C9.34444 7.66125 9.29012 7.70075 9.24944 7.67163L8.93538 7.44713L8.62131 7.67163C8.58062 7.70069 8.52644 7.66125 8.54144 7.61363L8.65794 7.24556L8.34737 7.01619C8.30719 6.98644 8.32788 6.92275 8.37788 6.92231L8.76394 6.91938L8.88606 6.55313C8.90188 6.50569 8.96887 6.50569 8.98469 6.55313Z" fill="#F5F5F5" />
  <path d="M8.98469 8.469L9.10681 8.83525L9.49288 8.83819C9.54288 8.83863 9.56356 8.90231 9.52337 8.93206L9.21281 9.16144L9.32931 9.5295C9.34444 9.57712 9.29012 9.61663 9.24944 9.5875L8.93538 9.363L8.62131 9.5875C8.58062 9.61663 8.52644 9.57712 8.54144 9.5295L8.65794 9.16144L8.34737 8.93206C8.30719 8.90231 8.32788 8.83863 8.37788 8.83819L8.76394 8.83525L8.88606 8.469C8.90188 8.42163 8.96887 8.42163 8.98469 8.469Z" fill="#F5F5F5" />
  <path d="M10.4718 1.782L10.5939 2.14825L10.98 2.15119C11.03 2.15162 11.0507 2.21537 11.0105 2.24506L10.6999 2.47437L10.8164 2.84244C10.8316 2.89006 10.7773 2.92956 10.7366 2.90044L10.4225 2.67594L10.1084 2.90044C10.0678 2.92956 10.0136 2.89006 10.0286 2.84244L10.1451 2.47437L9.8345 2.24506C9.79431 2.21531 9.815 2.15156 9.865 2.15119L10.2511 2.14825L10.3732 1.782C10.3889 1.73456 10.456 1.73456 10.4718 1.782Z" fill="#F5F5F5" />
  <path d="M10.4718 3.69787L10.5939 4.06412L10.98 4.06706C11.03 4.0675 11.0507 4.13119 11.0105 4.16094L10.6999 4.39031L10.8164 4.75838C10.8316 4.806 10.7773 4.8455 10.7366 4.81638L10.4225 4.59187L10.1084 4.81638C10.0678 4.84544 10.0136 4.806 10.0286 4.75838L10.1451 4.39031L9.8345 4.16094C9.79431 4.13119 9.815 4.0675 9.865 4.06706L10.2511 4.06412L10.3732 3.69787C10.3889 3.6505 10.456 3.6505 10.4718 3.69787Z" fill="#F5F5F5" />
  <path d="M10.4718 5.61381L10.5939 5.98006L10.98 5.983C11.03 5.98344 11.0507 6.04713 11.0105 6.07688L10.6999 6.30625L10.8164 6.67431C10.8316 6.72194 10.7773 6.76144 10.7366 6.73231L10.4225 6.50781L10.1084 6.73231C10.0678 6.76138 10.0136 6.722 10.0286 6.67431L10.1451 6.30625L9.8345 6.07688C9.79431 6.04713 9.815 5.98344 9.865 5.983L10.2511 5.98006L10.3732 5.61381C10.3889 5.56637 10.456 5.56637 10.4718 5.61381Z" fill="#F5F5F5" />
  <path d="M10.4718 7.52969L10.5939 7.89594L10.98 7.89888C11.03 7.89931 11.0507 7.96306 11.0105 7.99275L10.6999 8.22213L10.8164 8.59019C10.8316 8.63781 10.7773 8.67731 10.7366 8.64819L10.4225 8.42369L10.1084 8.64819C10.0678 8.67725 10.0136 8.63781 10.0286 8.59019L10.1451 8.22213L9.8345 7.99275C9.79431 7.96313 9.815 7.89931 9.865 7.89888L10.2511 7.89594L10.3732 7.52969C10.3889 7.48225 10.456 7.48225 10.4718 7.52969Z" fill="#F5F5F5" />
  <path d="M10.4718 9.44556L10.5939 9.81181L10.98 9.81475C11.03 9.81519 11.0507 9.87888 11.0105 9.90863L10.6999 10.138L10.8164 10.5061C10.8316 10.5537 10.7773 10.5932 10.7366 10.5641L10.4225 10.3396L10.1084 10.5641C10.0678 10.5931 10.0136 10.5537 10.0286 10.5061L10.1451 10.138L9.8345 9.90863C9.79431 9.87888 9.815 9.81519 9.865 9.81475L10.2511 9.81181L10.3732 9.44556C10.3889 9.39819 10.456 9.39819 10.4718 9.44556Z" fill="#F5F5F5" />
  <path d="M11.9589 2.72131L12.081 3.08756L12.4671 3.0905C12.5171 3.09094 12.5378 3.15469 12.4976 3.18438L12.187 3.41375L12.3035 3.78181C12.3186 3.82944 12.2643 3.86894 12.2236 3.83981L11.9096 3.61531L11.5955 3.83981C11.5548 3.86888 11.5006 3.82944 11.5156 3.78181L11.6321 3.41375L11.3216 3.18438C11.2814 3.15463 11.3021 3.09094 11.3521 3.0905L11.7381 3.08756L11.8603 2.72131C11.876 2.67394 11.9431 2.67394 11.9589 2.72131Z" fill="#F5F5F5" />
  <path d="M11.9589 4.63725L12.081 5.0035L12.4671 5.00644C12.5171 5.00688 12.5378 5.07063 12.4976 5.10031L12.187 5.32969L12.3035 5.69775C12.3186 5.74538 12.2643 5.78488 12.2236 5.75575L11.9096 5.53125L11.5955 5.75575C11.5548 5.78481 11.5006 5.74544 11.5156 5.69775L11.6321 5.32969L11.3216 5.10031C11.2814 5.07069 11.3021 5.00688 11.3521 5.00644L11.7381 5.0035L11.8603 4.63725C11.876 4.58981 11.9431 4.58981 11.9589 4.63725Z" fill="#F5F5F5" />
  <path d="M11.9589 6.55313L12.081 6.91938L12.4671 6.92231C12.5171 6.92275 12.5378 6.98644 12.4976 7.01619L12.187 7.24556L12.3035 7.61363C12.3186 7.66125 12.2643 7.70075 12.2236 7.67163L11.9096 7.44713L11.5955 7.67163C11.5548 7.70069 11.5006 7.66125 11.5156 7.61363L11.6321 7.24556L11.3216 7.01619C11.2814 6.98644 11.3021 6.92275 11.3521 6.92231L11.7381 6.91938L11.8603 6.55313C11.876 6.50569 11.9431 6.50569 11.9589 6.55313Z" fill="#F5F5F5" />
  <path d="M11.9589 8.469L12.081 8.83525L12.4671 8.83819C12.5171 8.83863 12.5378 8.90231 12.4976 8.93206L12.187 9.16144L12.3035 9.5295C12.3186 9.57712 12.2643 9.61663 12.2236 9.5875L11.9096 9.363L11.5955 9.5875C11.5548 9.61663 11.5006 9.57712 11.5156 9.5295L11.6321 9.16144L11.3216 8.93206C11.2814 8.90231 11.3021 8.83863 11.3521 8.83819L11.7381 8.83525L11.8603 8.469C11.876 8.42163 11.9431 8.42163 11.9589 8.469Z" fill="#F5F5F5" />
  <path d="M13.446 1.782L13.5681 2.14825L13.9542 2.15119C14.0042 2.15162 14.0249 2.21537 13.9847 2.24506L13.6741 2.47437L13.7906 2.84244C13.8057 2.89006 13.7514 2.92956 13.7107 2.90044L13.3967 2.67594L13.0826 2.90044C13.0419 2.92956 12.9877 2.89006 13.0027 2.84244L13.1192 2.47437L12.8087 2.24506C12.7685 2.21531 12.7892 2.15156 12.8392 2.15119L13.2252 2.14825L13.3474 1.782C13.3631 1.73456 13.4301 1.73456 13.446 1.782Z" fill="#F5F5F5" />
  <path d="M13.446 3.69787L13.5681 4.06412L13.9542 4.06706C14.0042 4.0675 14.0249 4.13119 13.9847 4.16094L13.6741 4.39031L13.7906 4.75838C13.8057 4.806 13.7514 4.8455 13.7107 4.81638L13.3967 4.59187L13.0826 4.81638C13.0419 4.84544 12.9877 4.806 13.0027 4.75838L13.1192 4.39031L12.8087 4.16094C12.7685 4.13119 12.7892 4.0675 12.8392 4.06706L13.2252 4.06412L13.3474 3.69787C13.3631 3.6505 13.4301 3.6505 13.446 3.69787Z" fill="#F5F5F5" />
  <path d="M13.446 5.61381L13.5681 5.98006L13.9542 5.983C14.0042 5.98344 14.0249 6.04713 13.9847 6.07688L13.6741 6.30625L13.7906 6.67431C13.8057 6.72194 13.7514 6.76144 13.7107 6.73231L13.3967 6.50781L13.0826 6.73231C13.0419 6.76138 12.9877 6.722 13.0027 6.67431L13.1192 6.30625L12.8087 6.07688C12.7685 6.04713 12.7892 5.98344 12.8392 5.983L13.2252 5.98006L13.3474 5.61381C13.3631 5.56637 13.4301 5.56637 13.446 5.61381Z" fill="#F5F5F5" />
  <path d="M13.446 7.52969L13.5681 7.89594L13.9542 7.89888C14.0042 7.89931 14.0249 7.96306 13.9847 7.99275L13.6741 8.22213L13.7906 8.59019C13.8057 8.63781 13.7514 8.67731 13.7107 8.64819L13.3967 8.42369L13.0826 8.64819C13.0419 8.67725 12.9877 8.63781 13.0027 8.59019L13.1192 8.22213L12.8087 7.99275C12.7685 7.96313 12.7892 7.89931 12.8392 7.89888L13.2252 7.89594L13.3474 7.52969C13.3631 7.48225 13.4301 7.48225 13.446 7.52969Z" fill="#F5F5F5" />
  <path d="M13.446 9.44556L13.5681 9.81181L13.9542 9.81475C14.0042 9.81519 14.0249 9.87888 13.9847 9.90863L13.6741 10.138L13.7906 10.5061C13.8057 10.5537 13.7514 10.5932 13.7107 10.5641L13.3967 10.3396L13.0826 10.5641C13.0419 10.5931 12.9877 10.5537 13.0027 10.5061L13.1192 10.138L12.8087 9.90863C12.7685 9.87888 12.7892 9.81519 12.8392 9.81475L13.2252 9.81181L13.3474 9.44556C13.3631 9.39819 13.4301 9.39819 13.446 9.44556Z" fill="#F5F5F5" />
</svg>
  