<svg width="32" height="22" viewBox="0 0 32 22" fill="none" xmlns="http://www.w3.org/2000/svg">
  <path d="M29.612 0.515625H2.39422C1.07521 0.515625 0 1.58458 0 2.90984V19.088C0 20.4133 1.07521 21.4822 2.39422 21.4822H29.6058C30.931 21.4822 32 20.407 32 19.088V2.90984C32.0063 1.58458 30.931 0.515625 29.612 0.515625Z" fill="#FF4B55" />
  <path d="M16.2575 4.74731L17.7328 9.17317L22.3962 9.21068C22.6587 9.21068 22.765 9.54825 22.5525 9.69828L18.8017 12.4676L20.2083 16.9122C20.2895 17.1622 20.002 17.3685 19.7894 17.2122L16.0012 14.5055L12.2067 17.2185C11.9942 17.3685 11.7129 17.1622 11.7879 16.9184L13.1944 12.4738L9.44366 9.70453C9.23112 9.54825 9.34364 9.21693 9.59994 9.21693L14.2634 9.17943L15.7386 4.75356C15.8262 4.49726 16.1762 4.49726 16.2575 4.74731Z" fill="#FFE15A" />
</svg>
  