<svg width="24" height="24" viewBox="0 0 24 24" fill="none" xmlns="http://www.w3.org/2000/svg">
  <g clip-path="url(#clip0_7426_14885)">
    <path d="M21.6204 15.9744H20.664C20.6893 15.8387 20.7463 15.675 20.8627 15.4946C21.2211 14.9392 21.2977 14.4487 21.3653 14.0159C21.4079 13.7432 21.4482 13.4857 21.5577 13.1885C21.6547 12.9252 21.8413 12.7114 22.0324 12.5485L22.6936 14.1783L24 13.6483L21.636 7.80273L21.0617 7.91895C20.9961 7.9322 19.4448 8.26455 18.4748 10.0608C17.7669 11.3718 16.1729 12.3898 14.2336 12.7977L13.8471 11.3796L13.1578 11.5814C12.0194 11.9145 11.3576 12.2147 10.339 12.8166C10.3335 12.8238 10.3278 12.8313 10.3223 12.8384L7.64461 16.4341H5.44678C5.44678 16.4341 4.21534 14.7555 3.51174 13.8189C3.11953 13.9685 2.77478 14.1858 2.47439 14.4726C1.71445 15.1982 1.40508 16.3987 1.64945 17.4971L0 18.594L1.95026 22.1211H2.89631L3.62726 21.2985C4.36497 20.4683 5.42498 19.9922 6.5355 19.9922C7.47229 19.9922 8.37937 20.3318 9.08974 20.9484C9.89823 21.6502 10.6843 22.0354 11.4236 22.1176C12.2725 22.2119 12.7843 22.0042 13.4696 21.7845C13.9889 21.6179 14.3857 21.4469 15.0664 21.5352C15.354 21.5724 15.6158 21.5903 15.8557 21.5903C17.201 21.5902 17.8458 21.0292 18.3538 20.1956C18.5293 19.9076 18.7745 19.742 19.0079 19.6685C19.6192 19.4758 20.181 20.1927 20.181 20.1927L21.513 19.5381C21.75 20.1903 21.8704 20.8725 21.8704 21.5688H23.2802C23.2802 20.628 23.103 19.708 22.7537 18.8344L21.6204 15.9744Z" fill="#6F767E" />
    <path d="M6.16093 15.0246H6.92999L9.2016 11.983C10.1605 10.7285 11.4737 9.01041 11.4737 6.78762C11.4737 4.07018 9.26293 1.85938 6.54548 1.85938C3.82804 1.85938 1.61719 4.07018 1.61719 6.78762C1.61719 9.01041 2.9304 10.7285 3.88932 11.983L6.16093 15.0246ZM4.19882 6.78762C4.19882 5.49368 5.25154 4.44096 6.54548 4.44096C7.83942 4.44096 8.89214 5.49368 8.89214 6.78762C8.89214 8.08156 7.83942 9.13428 6.54548 9.13428C5.25154 9.13428 4.19882 8.08161 4.19882 6.78762Z" fill="#6F767E" />
    <path d="M7.41429 7.1469C7.61245 6.66883 7.38554 6.12063 6.90746 5.92246C6.42939 5.7243 5.88119 5.95121 5.68303 6.42929C5.48486 6.90736 5.71178 7.45557 6.18985 7.65373C6.66793 7.85189 7.21613 7.62498 7.41429 7.1469Z" fill="#6F767E" />
  </g>
  <defs>
    <clipPath id="clip0_7426_14885">
      <rect width="24" height="24" fill="white" />
    </clipPath>
  </defs>
</svg>
  