<svg width="20" height="16" viewBox="0 0 20 16" fill="none" xmlns="http://www.w3.org/2000/svg">
  <path d="M19.9967 11.3458C19.9538 9.49031 19.3874 7.01375 18.4811 4.72078C18.067 3.67 17.6178 2.76765 17.1842 2.11531C16.6061 1.24031 16.0866 0.834058 15.5397 0.834058C15.2311 0.834058 14.9538 0.82234 14.6881 0.810621C14.0163 0.783277 13.4342 0.75984 12.9303 0.966871C12.4108 1.18171 12.11 1.58406 11.9264 1.9864H8.07486C7.89127 1.58015 7.59049 1.17781 7.07095 0.962965C6.56314 0.755933 5.98502 0.779371 5.31314 0.806715C5.04361 0.818433 4.76627 0.830152 4.46158 0.830152C3.9147 0.830152 3.39517 1.2364 2.81705 2.1114C2.38345 2.76765 1.93814 3.67 1.52017 4.72078C0.613923 7.00984 0.0475168 9.4864 0.00454808 11.3458C-0.0696707 14.6036 1.46549 15.1583 2.38736 15.2012H2.46939C3.39127 15.2012 4.40299 14.4942 5.55533 13.0489C6.0983 12.3692 6.5358 11.6895 6.77408 11.3067H13.2272C13.4616 11.6895 13.903 12.3653 14.446 13.0489C15.6374 14.5372 16.6725 15.2442 17.6139 15.2012C18.5358 15.1622 20.071 14.6036 19.9967 11.3458V11.3458ZM13.9889 6.9825C13.9889 7.32625 13.7077 7.6075 13.3639 7.6075H13.2116C12.8678 7.6075 12.5866 7.32625 12.5866 6.9825C12.5866 6.63875 12.8678 6.3575 13.2116 6.3575H13.3639C13.7077 6.3614 13.9889 6.63484 13.9889 6.9825ZM7.4147 6.9825C7.4147 7.32625 7.13345 7.6075 6.7897 7.6075H6.00064V8.39656C6.00064 8.74031 5.71939 9.02156 5.37564 9.02156C5.03189 9.02156 4.75064 8.74031 4.75064 8.39656V7.6075H3.96158C3.61783 7.6075 3.33658 7.32625 3.33658 6.9825C3.33658 6.63875 3.61783 6.3575 3.96158 6.3575H4.75064V5.56843C4.75064 5.22468 5.03189 4.94343 5.37564 4.94343C5.71939 4.94343 6.00064 5.22468 6.00064 5.56843V6.3575H6.7897C7.13736 6.3614 7.4147 6.63484 7.4147 6.9825ZM15.2506 5.56453V5.72078C15.2506 6.06453 14.9694 6.34578 14.6256 6.34578C14.2819 6.34578 14.0006 6.06453 14.0006 5.72078V5.56453C14.0006 5.22078 14.2819 4.93953 14.6256 4.93953C14.9694 4.93953 15.2506 5.22078 15.2506 5.56453ZM15.2506 8.24812V8.40046C15.2506 8.74421 14.9694 9.02546 14.6256 9.02546C14.2819 9.02546 14.0006 8.74421 14.0006 8.40046V8.24812C14.0006 7.90437 14.2819 7.62312 14.6256 7.62312C14.9694 7.61921 15.2506 7.90046 15.2506 8.24812ZM16.6647 6.9825C16.6647 7.32625 16.3835 7.6075 16.0397 7.6075H15.8835C15.5397 7.6075 15.2585 7.32625 15.2585 6.9825C15.2585 6.63875 15.5397 6.3575 15.8835 6.3575H16.0397C16.3874 6.3614 16.6647 6.63484 16.6647 6.9825ZM11.4225 3.2325C11.0358 3.85359 10.4733 4.08796 10.0006 4.08796C9.52799 4.08796 8.96549 3.84968 8.57877 3.2325H11.4225Z" fill="white" />
</svg>
  