<svg width="20" height="20" viewBox="0 0 20 20" fill="none" xmlns="http://www.w3.org/2000/svg">
  <path d="M2.49951 10.8329H3.33284V12.4996V16.6662C3.33284 17.5854 4.08034 18.3329 4.99951 18.3329H14.9995C15.9187 18.3329 16.6662 17.5854 16.6662 16.6662V12.4996V10.8329H17.4995C17.8362 10.8329 18.1412 10.6296 18.2695 10.3187C18.3987 10.0071 18.327 9.64872 18.0887 9.41039L10.5887 1.91039C10.2628 1.58456 9.73617 1.58456 9.41034 1.91039L1.91034 9.41039C1.67201 9.64872 1.60034 10.0071 1.72951 10.3187C1.85867 10.6296 2.16284 10.8329 2.49951 10.8329ZM9.99951 3.67789L14.9995 8.67789V12.4996L15.0003 16.6662H4.99951V12.4996V9.99956V8.67872L9.99951 3.67789Z" fill="#484848" />
  <path d="M9.99935 14.1667C11.8377 14.1667 13.3327 12.6717 13.3327 10.8333C13.3327 8.995 11.8377 7.5 9.99935 7.5C8.16102 7.5 6.66602 8.995 6.66602 10.8333C6.66602 12.6717 8.16102 14.1667 9.99935 14.1667ZM9.99935 9.16667C10.9185 9.16667 11.666 9.91417 11.666 10.8333C11.666 11.7525 10.9185 12.5 9.99935 12.5C9.08018 12.5 8.33268 11.7525 8.33268 10.8333C8.33268 9.91417 9.08018 9.16667 9.99935 9.16667Z" fill="#484848" />
</svg>
  