<svg width="24" height="24" viewBox="0 0 24 24" fill="none" xmlns="http://www.w3.org/2000/svg">
  <path d="M20.4873 17.1404L16.4223 13.4444C16.0233 13.0814 15.4073 13.1004 15.0313 13.4874L12.6383 15.9484C12.0623 15.8384 10.9043 15.4774 9.71228 14.2884C8.52028 13.0954 8.15928 11.9344 8.05228 11.3624L10.5113 8.96837C10.8993 8.59237 10.9173 7.97737 10.5543 7.57737L6.85928 3.51337C6.49628 3.11237 5.87928 3.07437 5.46828 3.42637L3.29828 5.28737C3.12528 5.46137 3.02228 5.69137 3.00828 5.93637C2.99328 6.18637 2.70728 12.1084 7.29928 16.7024C11.3053 20.7074 16.3233 21.0004 17.7053 21.0004C17.9073 21.0004 18.0313 20.9944 18.0643 20.9924C18.3093 20.9784 18.5393 20.8754 18.7123 20.7014L20.5723 18.5304C20.9263 18.1194 20.8873 17.5034 20.4873 17.1404Z" fill="#6F767E" />
</svg>
  