<svg width="88" height="88" viewBox="0 0 88 88" fill="none" xmlns="http://www.w3.org/2000/svg">
  <g clip-path="url(#clip0_7520_16331)">
    <path fill-rule="evenodd" clip-rule="evenodd" d="M24.346 23.5523C43.8806 16.1842 63.1131 8.93003 81.4514 3.2084C85.0247 2.10153 88.9125 5.967 87.8091 9.54543C82.0457 28.0999 74.4554 47.5053 66.7476 67.2111C64.7622 72.287 62.769 77.3828 60.7972 82.4892C59.6835 85.3595 55.983 85.8872 54.4189 83.364C48.2624 73.4572 41.6864 63.3715 35.0881 53.3358C34.5966 52.5881 34.7152 51.5981 35.3717 50.9965C42.4559 44.4973 49.614 37.9265 56.6636 31.4554C59.8061 28.5708 62.927 25.7059 66.0102 22.8761C66.5636 22.369 65.8692 21.4718 65.2316 21.8689C58.2058 26.2368 51.058 30.7481 43.876 35.2809C38.4763 38.6889 33.0573 42.1091 27.6563 45.4897C27.206 45.7715 26.6525 45.842 26.1421 45.6839C18.2702 43.2381 10.4 40.825 2.56081 38.5236C-0.832007 37.5267 -0.857788 32.972 2.50924 31.7276C9.80957 29.0351 17.0986 26.2858 24.346 23.5523ZM25.3017 74.3756C25.1109 67.3992 24.9837 60.4228 24.9219 53.4464H24.9236C24.9047 51.4114 27.5687 50.6345 28.6997 52.3498C31.8639 57.1503 35.035 61.9748 38.17 66.7976C38.9967 68.0695 38.7973 69.7522 37.7077 70.7679C35.4544 72.8682 33.2217 74.9565 31.0148 77.0259C28.9042 79.0111 25.3911 77.3559 25.3017 74.3756Z" fill="url(#paint0_linear_7520_16331)" />
  </g>
  <defs>
    <linearGradient id="paint0_linear_7520_16331" x1="83.5" y1="7.5" x2="22" y2="81" gradientUnits="userSpaceOnUse">
      <stop stop-color="#F25C41" />
      <stop offset="0.46875" stop-color="#F58645" stop-opacity="0.53125" />
      <stop offset="1" stop-color="#F8B54A" stop-opacity="0" />
    </linearGradient>
    <clipPath id="clip0_7520_16331">
      <rect width="88" height="88" fill="white" />
    </clipPath>
  </defs>
</svg>
  