<svg width="16" height="16" viewBox="0 0 16 16" fill="none" xmlns="http://www.w3.org/2000/svg">
  <path d="M14.034 10H13.97C13.8762 10.0008 13.7848 10.0299 13.7078 10.0834C13.6307 10.1369 13.5715 10.2124 13.538 10.3C13.5027 10.3846 13.4933 10.4778 13.5111 10.5677C13.529 10.6576 13.5731 10.7402 13.638 10.805L13.6835 10.8505C13.9578 11.1258 14.1118 11.4986 14.1118 11.8872C14.1118 12.2759 13.9578 12.6487 13.6835 12.924L12.928 13.679C12.6529 13.9535 12.2801 14.1076 11.8915 14.1076C11.5029 14.1076 11.1301 13.9535 10.855 13.679L10.8095 13.6335C10.7425 13.5689 10.658 13.5254 10.5666 13.5081C10.4751 13.4908 10.3806 13.5006 10.2947 13.5363C10.2087 13.572 10.1351 13.632 10.0827 13.7089C10.0304 13.7859 10.0016 13.8764 10 13.9695V14.034C9.9996 14.4227 9.84502 14.7953 9.57018 15.0702C9.29534 15.345 8.92269 15.4996 8.534 15.5H7.466C7.07731 15.4996 6.70466 15.345 6.42982 15.0702C6.15498 14.7953 6.0004 14.4227 6 14.034V13.9695C5.99756 13.8771 5.9684 13.7874 5.91603 13.7113C5.86367 13.6351 5.79035 13.5758 5.70496 13.5404C5.61957 13.5051 5.52576 13.4953 5.4349 13.5121C5.34404 13.529 5.26001 13.5719 5.193 13.6355L5.15 13.681C4.87489 13.9555 4.50213 14.1096 4.1135 14.1096C3.72487 14.1096 3.35211 13.9555 3.077 13.681L2.319 12.926C2.04472 12.6507 1.89073 12.2779 1.89073 11.8892C1.89073 11.5006 2.04472 11.1278 2.319 10.8525L2.3645 10.807C2.43003 10.74 2.47389 10.6548 2.49038 10.5625C2.50688 10.4702 2.49525 10.3751 2.457 10.2895C2.42269 10.2043 2.36373 10.1312 2.28767 10.0796C2.21161 10.028 2.1219 10.0003 2.03 10H1.966C1.57731 9.9996 1.20466 9.84502 0.92982 9.57018C0.654978 9.29534 0.500397 8.92269 0.5 8.534V7.466C0.500397 7.07731 0.654978 6.70466 0.92982 6.42982C1.20466 6.15498 1.57731 6.0004 1.966 6H2.03C2.12381 5.99917 2.21519 5.97011 2.29225 5.9166C2.3693 5.86309 2.42846 5.78761 2.462 5.7C2.49732 5.6154 2.50666 5.52221 2.48886 5.43228C2.47105 5.34235 2.42689 5.25976 2.362 5.195L2.3165 5.1495C2.04222 4.87417 1.88823 4.50138 1.88823 4.11275C1.88823 3.72412 2.04222 3.35133 2.3165 3.076L3.0715 2.3215C3.34657 2.04674 3.71946 1.8924 4.10825 1.8924C4.49704 1.8924 4.86993 2.04674 5.145 2.3215L5.1905 2.367C5.25758 2.43247 5.34277 2.47628 5.43503 2.49278C5.5273 2.50927 5.6224 2.49768 5.708 2.4595C5.79325 2.42533 5.86635 2.36648 5.91793 2.29049C5.96951 2.2145 5.99722 2.12484 5.9975 2.033V1.9685C5.99737 1.77562 6.03526 1.5846 6.10901 1.40637C6.18277 1.22815 6.29093 1.06621 6.42732 0.92982C6.56371 0.793431 6.72565 0.685268 6.90387 0.611515C7.0821 0.537763 7.27312 0.499869 7.466 0.5H8.534C8.92269 0.500397 9.29534 0.654978 9.57018 0.92982C9.84502 1.20466 9.9996 1.57731 10 1.966V2.0305C10.0024 2.12289 10.0316 2.21258 10.084 2.28873C10.1363 2.36488 10.2096 2.42422 10.295 2.45956C10.3804 2.49491 10.4742 2.50474 10.5651 2.48786C10.656 2.47099 10.74 2.42814 10.807 2.3645L10.8525 2.319C11.1276 2.04451 11.5004 1.89036 11.889 1.89036C12.2776 1.89036 12.6504 2.04451 12.9255 2.319L13.681 3.0735C13.9553 3.34883 14.1093 3.72162 14.1093 4.11025C14.1093 4.49888 13.9553 4.87167 13.681 5.147L13.6355 5.1925C13.57 5.25954 13.5261 5.34473 13.5096 5.43702C13.4931 5.5293 13.5048 5.62441 13.543 5.71C13.5772 5.79534 13.6362 5.86853 13.7122 5.92019C13.7883 5.97186 13.878 5.99964 13.97 6H14.034C14.4227 6.0004 14.7953 6.15498 15.0702 6.42982C15.345 6.70466 15.4996 7.07731 15.5 7.466V8.534C15.4996 8.92269 15.345 9.29534 15.0702 9.57018C14.7953 9.84502 14.4227 9.9996 14.034 10V10ZM14.5 7.466C14.4999 7.34245 14.4507 7.224 14.3634 7.13663C14.276 7.04927 14.1576 7.00013 14.034 7H13.97C13.6798 6.99753 13.3968 6.90971 13.1563 6.74748C12.9157 6.58526 12.7282 6.35581 12.6171 6.08774C12.5061 5.81967 12.4764 5.52484 12.5317 5.24C12.5871 4.95517 12.7251 4.69294 12.9285 4.486L12.9735 4.4405C13.0608 4.35296 13.1098 4.23438 13.1098 4.11075C13.1098 3.98712 13.0608 3.86854 12.9735 3.781L12.218 3.0265C12.1306 2.93911 12.0121 2.89002 11.8885 2.89002C11.7649 2.89002 11.6464 2.93911 11.559 3.0265L11.514 3.072C11.307 3.27516 11.0448 3.41294 10.76 3.46818C10.4752 3.52342 10.1805 3.49368 9.91256 3.38267C9.64459 3.27165 9.41518 3.08426 9.25292 2.84383C9.09066 2.6034 9.0027 2.32055 9 2.0305V1.966C8.99987 1.84245 8.95073 1.724 8.86337 1.63663C8.776 1.54927 8.65755 1.50013 8.534 1.5H7.466C7.34245 1.50013 7.224 1.54927 7.13663 1.63663C7.04927 1.724 7.00013 1.84245 7 1.966V2.0305C6.9986 2.32114 6.91139 2.60489 6.74932 2.84614C6.58725 3.0874 6.35754 3.27542 6.08901 3.38662C5.82048 3.49781 5.5251 3.52722 5.23991 3.47116C4.95473 3.4151 4.69246 3.27606 4.486 3.0715L4.4405 3.026C4.35298 2.93886 4.2345 2.88994 4.111 2.88994C3.9875 2.88994 3.86902 2.93886 3.7815 3.026L3.0265 3.7805C2.93921 3.86804 2.89019 3.98662 2.89019 4.11025C2.89019 4.23388 2.93921 4.35246 3.0265 4.44L3.072 4.4855C3.2756 4.69245 3.41374 4.95477 3.46919 5.23973C3.52465 5.52469 3.49495 5.81967 3.38381 6.08786C3.27268 6.35606 3.08502 6.58558 2.84426 6.74779C2.6035 6.91 2.3203 6.99772 2.03 7H1.966C1.84245 7.00013 1.724 7.04927 1.63663 7.13663C1.54927 7.224 1.50013 7.34245 1.5 7.466V8.534C1.50013 8.65755 1.54927 8.776 1.63663 8.86337C1.724 8.95073 1.84245 8.99987 1.966 9H2.03C2.32015 9.00247 2.60316 9.09029 2.84374 9.25252C3.08432 9.41474 3.27183 9.64419 3.38289 9.91226C3.49394 10.1803 3.52363 10.4752 3.46826 10.76C3.41289 11.0448 3.2749 11.3071 3.0715 11.514L3.0265 11.5595C2.93924 11.647 2.89023 11.7655 2.89023 11.889C2.89023 12.0125 2.93924 12.131 3.0265 12.2185L3.7815 12.974C3.86889 13.0614 3.98741 13.1105 4.111 13.1105C4.23459 13.1105 4.35311 13.0614 4.4405 12.974L4.4855 12.9285C4.69247 12.7252 4.95469 12.5873 5.23948 12.5319C5.52427 12.4766 5.81905 12.5062 6.08711 12.6172C6.35517 12.7282 6.58465 12.9156 6.74698 13.156C6.9093 13.3965 6.9973 13.6794 7 13.9695V14.034C7.00013 14.1576 7.04927 14.276 7.13663 14.3634C7.224 14.4507 7.34245 14.4999 7.466 14.5H8.534C8.65755 14.4999 8.776 14.4507 8.86337 14.3634C8.95073 14.276 8.99987 14.1576 9 14.034V13.9695C9.00257 13.6794 9.09046 13.3964 9.25272 13.1559C9.41498 12.9154 9.64444 12.728 9.91249 12.617C10.1805 12.506 10.4753 12.4764 10.7601 12.5318C11.0449 12.5871 11.3071 12.7251 11.514 12.9285L11.5595 12.974C11.6469 13.0614 11.7654 13.1105 11.889 13.1105C12.0126 13.1105 12.1311 13.0614 12.2185 12.974L12.9735 12.2185C13.0608 12.131 13.1098 12.0125 13.1098 11.889C13.1098 11.7655 13.0608 11.647 12.9735 11.5595L12.928 11.514C12.7246 11.307 12.5866 11.0448 12.5312 10.7599C12.4759 10.475 12.5056 10.1801 12.6167 9.91204C12.7278 9.64394 12.9154 9.4145 13.1561 9.25231C13.3967 9.09012 13.6798 9.00237 13.97 9H14.034C14.1576 8.99987 14.276 8.95073 14.3634 8.86337C14.4507 8.776 14.4999 8.65755 14.5 8.534V7.466Z" fill="black" />
  <path d="M8 11.5C7.30777 11.5 6.63108 11.2947 6.05551 10.9101C5.47993 10.5256 5.03133 9.97893 4.76642 9.33939C4.50152 8.69985 4.4322 7.99612 4.56725 7.31718C4.7023 6.63825 5.03564 6.01461 5.52513 5.52513C6.01461 5.03564 6.63825 4.7023 7.31719 4.56725C7.99612 4.4322 8.69985 4.50152 9.33939 4.76642C9.97893 5.03133 10.5256 5.47993 10.9101 6.0555C11.2947 6.63108 11.5 7.30777 11.5 8C11.4989 8.92793 11.1299 9.81756 10.4737 10.4737C9.81756 11.1299 8.92793 11.4989 8 11.5V11.5ZM8 5.5C7.50555 5.5 7.0222 5.64662 6.61108 5.92133C6.19995 6.19603 5.87952 6.58648 5.6903 7.04329C5.50108 7.50011 5.45157 8.00277 5.54804 8.48773C5.6445 8.97268 5.8826 9.41814 6.23223 9.76777C6.58187 10.1174 7.02732 10.3555 7.51228 10.452C7.99723 10.5484 8.4999 10.4989 8.95671 10.3097C9.41353 10.1205 9.80397 9.80005 10.0787 9.38893C10.3534 8.9778 10.5 8.49445 10.5 8C10.4992 7.3372 10.2356 6.70178 9.76689 6.23311C9.29822 5.76444 8.6628 5.50079 8 5.5V5.5Z" fill="black" />
</svg>
  