<svg width="24" height="24" viewBox="0 0 24 24" fill="none" xmlns="http://www.w3.org/2000/svg">
  <g clip-path="url(#clip0_7573_15079)">
    <path d="M18.3312 8.3313C17.7142 7.18011 16.8179 6.2016 15.7174 5.48273C14.4514 4.65582 12.98 4.21875 11.4619 4.21875C7.68787 4.21875 4.48956 6.90875 3.8053 10.5619C1.63055 10.9651 0 12.8762 0 15.1423C0 17.7114 2.09015 19.8016 4.6593 19.8016H11.2969V13.9036L9.80713 15.3933C9.53247 15.6678 9.08734 15.6678 8.81268 15.3933C8.53802 15.1187 8.53802 14.6735 8.81268 14.3989L11.5029 11.7089C11.7773 11.4342 12.2225 11.4342 12.4971 11.7089L15.1873 14.3989C15.462 14.6735 15.462 15.1187 15.1873 15.3933C15.05 15.5306 14.87 15.5993 14.6902 15.5993C14.5102 15.5993 14.3302 15.5306 14.1929 15.3933L12.7031 13.9036V19.8016H18.2646C21.4272 19.8016 24 17.2288 24 14.0662C24 10.9259 21.4633 8.367 18.3312 8.3313V8.3313Z" fill="#484848" />
  </g>
  <defs>
    <clipPath id="clip0_7573_15079">
      <rect width="24" height="24" fill="white" />
    </clipPath>
  </defs>
</svg>
  